<svg xmlns="http://www.w3.org/2000/svg" width="1024" height="1024" fill="none" viewBox="0 0 1024 1024"><defs><linearGradient id="bgGrad" x1="0%" x2="100%" y1="0%" y2="100%"><stop offset="0%" style="stop-color:#2a2a2a;stop-opacity:1"/><stop offset="100%" style="stop-color:#0f0f0f;stop-opacity:1"/></linearGradient><linearGradient id="silverGrad" x1="0%" x2="0%" y1="0%" y2="100%"><stop offset="0%" style="stop-color:#fcfcfc;stop-opacity:1"/><stop offset="50%" style="stop-color:#999;stop-opacity:1"/><stop offset="100%" style="stop-color:#666;stop-opacity:1"/></linearGradient><linearGradient id="bodyGrad" x1="0%" x2="100%" y1="0%" y2="100%"><stop offset="0%" style="stop-color:#333;stop-opacity:1"/><stop offset="100%" style="stop-color:#1a1a1a;stop-opacity:1"/></linearGradient><linearGradient id="glowPulse" x1="0%" x2="100%" y1="0%" y2="0%"><stop offset="0%" style="stop-color:#fff;stop-opacity:.2"/><stop offset="50%" style="stop-color:#fff;stop-opacity:1"/><stop offset="100%" style="stop-color:#fff;stop-opacity:.2"/></linearGradient><filter id="softGlow" width="200%" height="200%" x="-50%" y="-50%"><feGaussianBlur result="blur" stdDeviation="35"/><feComposite in="SourceGraphic" in2="blur" operator="over"/></filter></defs><rect width="1024" height="1024" fill="url(#bgGrad)" rx="240"/><circle cx="512" cy="540" r="400" fill="#000" filter="url(#softGlow)" opacity=".4"/><path fill="none" stroke="url(#silverGrad)" stroke-linecap="round" stroke-width="56" d="M 320 480 C 320 220, 704 220, 704 480"/><g><rect width="140" height="240" x="220" y="460" fill="url(#bodyGrad)" stroke="#444" stroke-width="2" rx="70"/><path stroke="#fff" stroke-linecap="round" stroke-width="2" d="M 290 510 L 290 610" opacity=".1"/><rect width="140" height="240" x="664" y="460" fill="url(#bodyGrad)" stroke="#444" stroke-width="2" rx="70"/><path stroke="#fff" stroke-linecap="round" stroke-width="2" d="M 734 510 L 734 610" opacity=".1"/></g><g filter="url(#softGlow)"><rect width="34" height="160" x="495" y="440" fill="url(#glowPulse)" opacity=".8" rx="17"/><path fill="none" stroke="#fff" stroke-linecap="round" stroke-width="34" d="M 512 580 L 590 580 Q 610 580, 610 560" opacity=".9"/></g><circle cx="512" cy="300" r="6" fill="#fff" opacity=".5"/></svg>